# AST/ASF file generated using VICON BodyLanguage
# -----------------------------------------------
:version 1.10
:name VICON
:units
  mass 1.0
  length 0.45
  angle deg
:documentation
   .ast/.asf automatically generated from VICON data using
   VICON BodyBuilder and BodyLanguage model FoxedUp or BRILLIANT.MOD
:root
   order TX TY TZ RX RY RZ
   axis XYZ
   position 0 0 0  
   orientation 0 0 0 
:bonedata
  begin
     id 1 
     name lhipjoint
     direction 0.692814 -0.645514 0.321437 
     length 2.38754 
     axis 0 0 0  XYZ
  end
  begin
     id 2 
     name lfemur
     direction 0.34202 -0.939693 0  
     length 6.41921  
     axis 0 0 20  XYZ
    dof rx ry rz
    limits (-160.0 20.0)
           (-70.0 70.0)
           (-60.0 70.0)
  end
  begin
     id 3 
     name ltibia
     direction 0.34202 -0.939693 0   
     length 6.98247   
     axis 0 0 20   XYZ
    dof rx
    limits (-10.0 170.0)
  end
  begin
     id 4 
     name lfoot
     direction 0.0947186 -0.260237 0.960888   
     length 1.83034   
     axis -90 7.62852e-016 20   XYZ
    dof rx rz
    limits (-45.0 90.0)
           (-70.0 20.0)
  end
  begin
     id 5 
     name ltoes
     direction 1.53538e-011 -4.21952e-011 1   
     length 0.920499   
     axis -90 7.62852e-016 20   XYZ
    dof rx
    limits (-90.0 20.0)
  end
  begin
     id 6 
     name rhipjoint
     direction -0.631686 -0.693949 0.345555   
     length 2.2209  
     axis 0 0 0  XYZ 
  end
  begin
     id 7 
     name rfemur
     direction -0.34202 -0.939693 0   
     length 6.49542   
     axis 0 0 -20   XYZ
    dof rx ry rz
    limits (-160.0 20.0)
           (-70.0 70.0)
           (-70.0 60.0)
  end
  begin
     id 8 
     name rtibia
     direction -0.34202 -0.939693 0   
     length 7.21712   
     axis 0 0 -20   XYZ
    dof rx
    limits (-10.0 170.0)
 end
 begin
     id 9 
     name rfoot
     direction -0.0825378 -0.226771 0.970444   
     length 1.89724  
     axis -90 -7.62852e-016 -20   XYZ
    dof rx rz
    limits (-45.0 90.0)
           (-20.0 70.0)
  end
  begin
     id 10 
     name rtoes
     direction -1.53515e-011 -4.22016e-011 1   
     length 0.955868   
     axis -90 -7.62852e-016 -20   XYZ
    dof rx
    limits (-90.0 20.0)
  end
  begin
     id 11 
     name lowerback
     direction -0.0104711 0.984802 -0.173368   
     length 1.84931   
     axis 0 0 0   XYZ
    dof rx ry rz
    limits (-20.0 45.0)
           (-30.0 30.0)
           (-30.0 30.0)
  end
  begin
     id 12 
     name upperback
     direction -0.00286433 0.999996 -0.000382853   
     length 1.85768   
     axis 0 0 0   XYZ
    dof rx ry rz
    limits (-20.0 45.0)
           (-30.0 30.0)
           (-30.0 30.0)
  end
  begin
     id 13 
     name thorax
     direction 0.00167534 0.996793 0.0800069   
     length 1.92   
     axis 0 0 0   XYZ
    dof rx ry rz
    limits (-20.0 45.0)
           (-30.0 30.0)
           (-30.0 30.0)
  end
  begin
     id 14 
     name lowerneck
     direction -0.0672491 0.995415 0.068018   
     length 1.58923   
     axis 0 0 0   XYZ
    dof rx ry rz
    limits (-20.0 45.0)
           (-30.0 30.0)
           (-30.0 30.0)
  end
  begin
     id 15 
     name upperneck
     direction 0.0958019 0.982476 -0.159884   
     length 1.60189   
     axis 0 0 0   XYZ
    dof rx ry rz
    limits (-20.0 45.0)
           (-30.0 30.0)
           (-30.0 30.0)
  end
  begin
     id 16
     name head
     direction 0.032989 0.997338 -0.0650226  
     length 1.61681  
     axis 0 0 0   XYZ
    dof rx ry rz
    limits (-20.0 45.0)
           (-30.0 30.0)
           (-30.0 30.0)
  end
  begin
     id 17 
     name lclavicle
     direction 0.954279 0.298875 -0.00496069  
     length 2.99449  
     axis 0 0 0   XYZ
    dof ry rz
    limits (-20.0 10.0)
           (0.0 20.0)
  end
  begin
     id 18 
     name lhumerus
     direction 1 -4.48985e-011 -4.2057e-027   
     length 4.79185   
     axis 180 -30 -90   XYZ
    dof rx ry rz
    limits (-60.0 90.0)
           (-90.0 90.0)
           (-90.0 90.0)
  end
  begin
     id 19
     name lradius
     direction 1 -4.48945e-011 1.15441e-028   
     length 2.65553   
     axis 180 -30 -90   XYZ
    dof rx
    limits (-10.0 170.0)
  end
  begin
     id 20
     name lwrist
     direction 1 -4.4899e-011 4.8894e-028   
     length 1.32777   
     axis -2.56392e-016 90 90   XYZ
    dof ry
    limits (-180.0 0.0)
 end
  begin
     id 21 
     name lhand
     direction 1 -4.48908e-011 9.7788e-028   
     length 0.743904   
     axis -6.23971e-016 90 90   XYZ
    dof rx rz
    limits (-90.0 90.0)
           (-45.0 45.0)
  end
  begin
     id 22 
     name lfingers
     direction 1 -4.49068e-011 1.95576e-027   
     length 0.599754   
     axis -1.24794e-015 90 90   XYZ
    dof rx
    limits (0.0 90.0)
  end
  begin
     id 23
     name lthumb
     direction 0.707107 -6.34883e-011 0.707107   
     length 0.861131   
     axis -90 45 2.85299e-015   XYZ
    dof rx rz
    limits (-45.0 45.0)
           (-45.0 45.0)
  end
  begin
     id 24 
     name rclavicle
     direction -0.957921 0.286916 0.00811568   
     length 3.06817  
     axis 0 0 0   XYZ 
    dof ry rz
    limits (-10.0 20.0)
           (-20.0 0.0)
  end
  begin
     id 25 
     name rhumerus
     direction -1 -4.48971e-011 -3.07942e-027  
     length 4.77254   
     axis 180 30 90   XYZ
    dof rx ry rz
    limits (-90.0 60.0)
           (-90.0 90.0)
           (-90.0 90.0)
  end
  begin
     id 26 
     name rradius
     direction -1 -4.48957e-011 -9.6815e-028   
     length 2.75995   
     axis 180 30 90   XYZ
    dof rx
    limits (-10.0 170.0)
  end
  begin
     id 27 
     name rwrist
     direction -1 -4.48979e-011 4.8894e-028   
     length 1.37997   
     axis -2.56392e-016 -90 -90   XYZ
    dof ry
    limits (-180.0 0.0)
  end
  begin
     id 28
     name rhand
     direction -1 -4.48906e-011 9.7788e-028   
     length 0.701619   
     axis -6.23971e-016 -90 -90   XYZ
    dof rx rz
    limits (-90.0 90.0)
           (-45.0 45.0)
  end
  begin
     id 29
     name rfingers
     direction -1 -4.49018e-011 1.95576e-027   
     length 0.565663   
     axis -1.24794e-015 -90 -90   XYZ
    dof rx
    limits (0.0 90.0)
  end
  begin
     id 30
     name rthumb
     direction -0.707107 -6.34881e-011 0.707107   
     length 0.812183   
     axis -90 -45 -2.85299e-015   XYZ
    dof rx rz
    limits (-45.0 45.0)
           (-45.0 45.0)
  end
:hierarchy
  begin
    root lhipjoint rhipjoint lowerback
    lhipjoint lfemur
    lfemur ltibia
    ltibia lfoot
    lfoot ltoes
    rhipjoint rfemur
    rfemur rtibia
    rtibia rfoot
    rfoot rtoes
    lowerback upperback
    upperback thorax
    thorax lowerneck lclavicle rclavicle
    lowerneck upperneck
    upperneck head
    lclavicle lhumerus
    lhumerus lradius
    lradius lwrist
    lwrist lhand lthumb
    lhand lfingers
    rclavicle rhumerus
    rhumerus rradius
    rradius rwrist
    rwrist rhand rthumb
    rhand rfingers
  end

#!OML:ASF F:\VICON\USERDATA\INSTALL\rory3\rory3.ASF
:FULLY-SPECIFIED
:DEGREES
1
root 0.316192 16.0907 0.396098 -1.25523 0.635017 -2.07553
lowerback 5.3145 0.37054 -1.05815
upperback -2.37681 0.402889 -0.236092
thorax -5.454 0.232412 0.308787
lowerneck -5.13063 -12.0145 -17.0685
upperneck 22.6029 -16.3171 7.53579
head 10.1036 -8.4182 3.45229
rclavicle 1.25234e-014 -2.38542e-015
rhumerus -30.799 2.66467 -94.6986
rradius 20.9411
rwrist 12.4679
rhand -16.271 9.96113
rfingers 7.12502
rthumb 9.93873 -19.7843
lclavicle 1.25234e-014 -2.38542e-015
lhumerus -30.7919 5.30045 85.7661
lradius 21.5611
lwrist 8.7228
lhand -13.1388 13.349
lfingers 7.12502
lthumb 12.9594 42.9265
rfemur 7.9479 11.2262 19.8479
rtibia 6.13465
rfoot -9.01589 -14.061
rtoes -13.7064
lfemur 8.81194 -13.315 -16.3757
ltibia 3.46623
lfoot -8.22887 11.2833
ltoes -12.4371
2
root 0.316456 16.0903 0.398183 -1.24823 0.659796 -2.07561
lowerback 5.38436 0.363526 -1.05106
upperback -2.41105 0.392375 -0.245178
thorax -5.52953 0.227182 0.295824
lowerneck -5.13331 -12.0048 -17.0416
upperneck 22.6258 -16.3062 7.52606
head 10.1072 -8.4122 3.44662
rclavicle -1.40143e-014 -1.39149e-014
rhumerus -30.8215 2.63607 -94.7017
rradius 20.9024
rwrist 12.568
rhand -16.2536 10.042
rfingers 7.12502
rthumb 9.95547 -19.7026
lclavicle -1.40143e-014 -1.39149e-014
lhumerus -30.8659 5.30138 85.7341
lradius 21.5773
lwrist 8.7363
lhand -13.0737 13.2912
lfingers 7.12502
lthumb 13.0222 42.8647
rfemur 7.95425 11.2012 19.8474
rtibia 6.13013
rfoot -8.972 -14.0461
rtoes -13.9458
lfemur 8.82035 -13.3387 -16.3795
ltibia 3.46677
lfoot -8.26002 11.275
ltoes -12.8181
3
root 0.316606 16.0906 0.399655 -1.22491 0.666044 -2.07537
lowerback 5.45498 0.360888 -1.05296
upperback -2.46152 0.387333 -0.245639
thorax -5.62279 0.225268 0.296244
lowerneck -5.15063 -11.9933 -17.0544
upperneck 22.6766 -16.2901 7.52811
head 10.1281 -8.40563 3.45017
rclavicle 2.07481e-014 4.37326e-015
rhumerus -30.8521 2.66579 -94.719
rradius 20.8715
rwrist 12.627
rhand -16.2983 10.0581
rfingers 7.12502
rthumb 9.91236 -19.6885
lclavicle 2.07481e-014 4.37326e-015
lhumerus -30.9571 5.48677 85.6197
lradius 21.4377
lwrist 8.58922
lhand -13.0609 12.5583
lfingers 7.12502
lthumb 13.0345 42.131
rfemur 7.92641 11.1947 19.844
rtibia 6.18757
rfoot -9.14396 -14.0184
rtoes -12.7344
lfemur 8.85955 -13.343 -16.374
ltibia 3.36329
lfoot -8.21858 11.2915
ltoes -13.243
4
root 0.316342 16.0898 0.401091 -1.20154 0.678393 -2.00523
lowerback 5.49777 0.366133 -1.13475
upperback -2.49253 0.386098 -0.264236
thorax -5.68033 0.227641 0.322539
lowerneck -5.17617 -11.9959 -17.0398
upperneck 22.7169 -16.2871 7.49759
head 10.1429 -8.40533 3.43597
rclavicle -1.9133e-015 -1.15295e-014
rhumerus -30.8789 2.64376 -94.7234
rradius 20.8836
rwrist 12.6377
rhand -16.2569 10.0945
rfingers 7.12502
rthumb 9.95231 -19.6502
lclavicle -1.9133e-015 -1.15295e-014
lhumerus -31.0429 5.63117 85.5156
lradius 21.3318
lwrist 8.38403
lhand -12.9698 11.8882
lfingers 7.12502
lthumb 13.1223 41.4554
rfemur 7.93682 11.1843 19.7635
rtibia 6.21822
rfoot -9.34527 -13.9802
rtoes -10.7149
lfemur 8.87428 -13.3516 -16.4454
ltibia 3.2768
lfoot -8.14175 11.288
ltoes -12.9527
5
root 0.316164 16.0895 0.402969 -1.20544 0.67706 -2.03952
lowerback 5.51656 0.364145 -1.09211
upperback -2.49327 0.386648 -0.261854
thorax -5.69153 0.226422 0.300908
lowerneck -5.14734 -11.989 -17.0172
upperneck 22.6872 -16.2737 7.46216
head 10.1196 -8.40128 3.42477
rclavicle 9.69075e-016 1.59028e-015
rhumerus -30.9461 2.57794 -94.7244
rradius 20.9334
rwrist 12.6599
rhand -16.1874 10.1854
rfingers 7.12502
rthumb 10.0194 -19.5561
lclavicle 9.69075e-016 1.59028e-015
lhumerus -31.0933 5.75254 85.4306
lradius 21.3271
lwrist 8.19785
lhand -12.878 11.9223
lfingers 7.12502
lthumb 13.2108 41.4837
rfemur 7.91822 11.1845 19.8027
rtibia 6.27337
rfoot -9.34169 -13.9811
rtoes -10.8068
lfemur 8.94392 -13.351 -16.4096
ltibia 3.14524
lfoot -8.02616 11.3315
ltoes -12.8098
6
root 0.31634 16.0907 0.404839 -1.16563 0.657366 -2.03881
lowerback 5.46283 0.357844 -1.09288
upperback -2.47278 0.37916 -0.26061
thorax -5.6392 0.222502 0.303835
lowerneck -5.18145 -11.9797 -16.991
upperneck 22.6646 -16.2475 7.42997
head 10.1088 -8.38851 3.41224
rclavicle 1.98785e-015 -2.38542e-015
rhumerus -30.9811 2.51765 -94.7342
rradius 20.9968
rwrist 12.731
rhand -16.16 10.1978
rfingers 7.12502
rthumb 10.0458 -19.5424
lclavicle 1.98785e-015 -2.38542e-015
lhumerus -31.0742 5.7241 85.4283
lradius 21.357
lwrist 8.27254
lhand -12.9003 11.9746
lfingers 7.12502
lthumb 13.1893 41.5374
rfemur 7.78634 11.2044 19.7945
rtibia 6.36022
rfoot -9.17582 -14.0373
rtoes -13.1401
lfemur 9.0173 -13.3282 -16.3988
ltibia 2.93243
lfoot -7.94161 11.3661
ltoes -12.8137
7
root 0.317268 16.0899 0.405573 -1.14499 0.618648 -2.00406
lowerback 5.45988 0.372965 -1.14806
upperback -2.46747 0.395949 -0.24547
thorax -5.63275 0.233087 0.348846
lowerneck -5.20387 -11.9723 -17.0107
upperneck 22.6508 -16.2267 7.42179
head 10.1064 -8.38009 3.41421
rclavicle -2.88238e-015 -3.97569e-016
rhumerus -31.0029 2.52972 -94.7026
rradius 21.0399
rwrist 12.7624
rhand -16.1099 10.1507
rfingers 7.12502
rthumb 10.0941 -19.5872
lclavicle -2.88238e-015 -3.97569e-016
lhumerus -31.0601 5.73939 85.453
lradius 21.3623
lwrist 8.284
lhand -12.9253 11.9513
lfingers 7.12502
lthumb 13.1652 41.5156
rfemur 7.73759 11.2445 19.7495
rtibia 6.37543
rfoot -9.13298 -14.0559
rtoes -14.222
lfemur 9.0554 -13.2864 -16.4373
ltibia 2.84782
lfoot -7.96655 11.3649
ltoes -13.1695
8
root 0.3175 16.0896 0.406814 -1.13407 0.609257 -1.96945
lowerback 5.49821 0.375404 -1.20889
upperback -2.49093 0.393848 -0.242147
thorax -5.6798 0.234658 0.386298
lowerneck -5.21049 -11.9561 -17.0118
upperneck 22.7142 -16.2017 7.39929
head 10.1253 -8.37112 3.40961
rclavicle 2.88238e-015 7.15625e-015
rhumerus -31.0217 2.54081 -94.7013
rradius 21.0201
rwrist 12.8265
rhand -16.1589 10.2008
rfingers 7.12502
rthumb 10.0469 -19.5394
lclavicle 2.88238e-015 7.15625e-015
lhumerus -31.0969 5.61489 85.5179
lradius 21.4309
lwrist 8.42631
lhand -12.9454 12.2982
lfingers 7.12502
lthumb 13.1458 41.8638
rfemur 7.72114 11.2553 19.7053
rtibia 6.40087
rfoot -9.17192 -14.0575
rtoes -14.0896
lfemur 9.11575 -13.2746 -16.477
ltibia 2.73124
lfoot -7.97655 11.3568
ltoes -13.1237
9
root 0.317872 16.09 0.408655 -1.12127 0.60231 -2.0047
lowerback 5.54033 0.38303 -1.16779
upperback -2.52781 0.406228 -0.244189
thorax -5.74248 0.239617 0.359379
lowerneck -5.11729 -11.9343 -16.9753
upperneck 22.7071 -16.1785 7.34925
head 10.0943 -8.3653 3.39692
rclavicle -9.19379e-016 3.97569e-016
rhumerus -31.0474 2.31765 -94.6421
rradius 21.0012
rwrist 13.0029
rhand -16.0482 10.2945
rfingers 7.12502
rthumb 10.1536 -19.4405
lclavicle -9.19379e-016 3.97569e-016
lhumerus -31.1691 5.5109 85.5412
lradius 21.4739
lwrist 8.44538
lhand -12.912 12.6055
lfingers 7.12502
lthumb 13.178 42.1691
rfemur 7.71534 11.2608 19.7452
rtibia 6.38457
rfoot -9.14593 -14.0784
rtoes -14.3019
lfemur 9.09403 -13.2676 -16.4383
ltibia 2.75525
lfoot -7.95973 11.3846
ltoes -13.0957
10
root 0.317317 16.0902 0.409548 -1.1079 0.574783 -2.03935
lowerback 5.55191 0.40817 -1.12963
upperback -2.52273 0.442655 -0.245571
thorax -5.74396 0.256133 0.33266
lowerneck -5.07705 -11.9396 -16.9559
upperneck 22.6505 -16.1919 7.35444
head 10.0667 -8.37023 3.39698
rclavicle -1.20265e-014 -1.39149e-014
rhumerus -31.0324 2.23667 -94.6223
rradius 21.0529
rwrist 12.9653
rhand -16.0537 10.2686
rfingers 7.12502
rthumb 10.1484 -19.4666
lclavicle -1.20265e-014 -1.39149e-014
lhumerus -31.1734 5.51631 85.51
lradius 21.3977
lwrist 8.35011
lhand -12.8211 12.2478
lfingers 7.12502
lthumb 13.2656 41.8057
rfemur 7.75458 11.2866 19.7854
rtibia 6.26904
rfoot -9.05122 -14.0749
rtoes -14.2934
lfemur 8.96796 -13.2414 -16.3925
ltibia 3.0016
lfoot -8.03567 11.3539
ltoes -12.6464
11
root 0.316635 16.0906 0.410353 -1.09142 0.556128 -2.10869
lowerback 5.54125 0.411927 -1.07221
upperback -2.49625 0.453847 -0.222135
thorax -5.70986 0.25976 0.323839
lowerneck -5.0791 -11.9456 -16.9392
upperneck 22.5955 -16.1936 7.33977
head 10.0445 -8.37019 3.38967
rclavicle -9.21864e-015 -6.75868e-015
rhumerus -30.9657 2.24138 -94.6144
rradius 21.0327
rwrist 12.9582
rhand -16.1112 10.3107
rfingers 7.12502
rthumb 10.0929 -19.4273
lclavicle -9.21864e-015 -6.75868e-015
lhumerus -31.1234 5.6007 85.4704
lradius 21.2928
lwrist 8.26572
lhand -12.8177 11.9132
lfingers 7.12502
lthumb 13.2689 41.4709
rfemur 7.80275 11.3025 19.8639
rtibia 6.14937
rfoot -8.97793 -14.0717
rtoes -14.4869
lfemur 8.83822 -13.2251 -16.3052
ltibia 3.23758
lfoot -8.16754 11.335
ltoes -12.5486
12
root 0.315603 16.0905 0.410392 -1.09553 0.554353 -2.2136
lowerback 5.55994 0.397416 -0.976679
upperback -2.46497 0.443076 -0.201873
thorax -5.68683 0.251101 0.292433
lowerneck -5.12109 -11.9533 -16.9358
upperneck 22.593 -16.203 7.36257
head 10.0543 -8.37069 3.39297
rclavicle 5.04416e-015 7.15625e-015
rhumerus -30.9221 2.25914 -94.6532
rradius 21.0361
rwrist 12.9811
rhand -16.2038 10.3735
rfingers 7.12502
rthumb 10.0036 -19.3688
lclavicle 5.04416e-015 7.15625e-015
lhumerus -31.0768 5.59756 85.4357
lradius 21.2975
lwrist 8.30007
lhand -12.8242 11.9625
lfingers 7.12502
lthumb 13.2627 41.5206
rfemur 7.84922 11.3002 19.9892
rtibia 6.07616
rfoot -8.96788 -14.0704
rtoes -14.3936
lfemur 8.74489 -13.2282 -16.1775
ltibia 3.39441
lfoot -8.29958 11.3313
ltoes -12.7338
13
root 0.314785 16.0904 0.411132 -1.09129 0.52908 -2.1791
lowerback 5.54716 0.396339 -1.03075
upperback -2.42624 0.437147 -0.213975
thorax -5.63917 0.249625 0.311107
lowerneck -5.14346 -11.9545 -16.9139
upperneck 22.5554 -16.2071 7.38795
head 10.0453 -8.36738 3.39708
rclavicle 1.84124e-014 5.96354e-015
rhumerus -30.7959 2.29843 -94.6594
rradius 20.9625
rwrist 12.9909
rhand -16.2241 10.4248
rfingers 7.12502
rthumb 9.98396 -19.3184
lclavicle 1.84124e-014 5.96354e-015
lhumerus -30.9991 5.66278 85.3865
lradius 21.2539
lwrist 8.2437
lhand -12.8358 11.9348
lfingers 7.12502
lthumb 13.2515 41.4935
rfemur 7.9008 11.3256 19.9574
rtibia 5.99216
rfoot -9.00629 -14.0759
rtoes -13.297
lfemur 8.64438 -13.2029 -16.2093
ltibia 3.57576
lfoot -8.39814 11.2786
ltoes -12.9427
